<svg xmlns="http://www.w3.org/2000/svg" width="1024" height="1024" viewBox="0 0 1024 1024">
<rect width="100%" height="100%" fill="none"/>
<g stroke="#C8A15A" fill="none" stroke-width="10" stroke-linecap="round" stroke-linejoin="round">
  <path d="M 332 700 L 332 340 A 180 180 0 0 1 692 340 L 692 700" />
  <path d="M 425 650 C 398 562, 400 478, 445 401 C 490 324, 548 293, 605 308 C 640 317, 667 335, 683 362" />
  <path d="M 595 356 C 611 330, 649 325, 675 343 C 694 356, 697 382, 677 392" />
  <path d="M 511 350 C 511 322, 531 307, 556 309 C 578 311, 593 328, 592 353" />
  <path d="M 542 477 C 514 450, 456 452, 433 504 C 413 553, 432 609, 482 635 C 532 661, 590 639, 609 590" />
  <path d="M 631 520 C 649 548, 656 576, 656 616" />
  <path d="M 443 700 L 581 700" />
  <path d="M 492 621 C 472 599, 432 601, 424 637 C 419 676, 448 706, 490 723 C 532 706, 561 676, 556 637 C 548 601, 508 599, 488 621" />
</g>
</svg>