<svg xmlns="http://www.w3.org/2000/svg" width="1600" height="1200" viewBox="0 0 1600 1200">
<rect width="100%" height="100%" fill="#F6E7C9"/>
<g>
  <g stroke="#C8A15A" fill="none" stroke-width="8" stroke-linecap="round" stroke-linejoin="round">
    <path d="M 670 380 L 670 190
             A 130 130 0 0 1 930 190
             L 930 380" />
    <path d="M 740 355
             C 720 305, 720 258, 748 215
             C 775 175, 812 162, 848 172
             C 868 178, 888 190, 894 205" />
    <path d="M 842 196 C 856 180, 885 178, 898 190
             C 911 202, 908 218, 892 223" />
    <path d="M 809 193 C 809 176, 821 167, 836 168
             C 847 169, 856 177, 855 191" />
    <path d="M 817 250
             C 797 233, 764 237, 750 266
             C 735 297, 747 327, 774 342
             C 802 357, 836 345, 847 316" />
    <path d="M 863 279
             C 875 293, 883 312, 883 335" />
    <path d="M 758 380 L 842 380" />
    <path d="M 786 336
             C 773 321, 749 323, 744 344
             C 740 365, 756 381, 780 391
             C 804 381, 820 365, 816 344
             C 811 323, 787 321, 774 336" />
  </g>

  <text x="800" y="580" text-anchor="middle" fill="#3A2B21"
        font-size="122" letter-spacing="10"
        font-family="'Cormorant Garamond','Garamond','Baskerville','Times New Roman',serif">PET PRINTS</text>

  <line x1="500" y1="690" x2="620" y2="690" stroke="#C8A15A" stroke-width="4"/>
  <line x1="980" y1="690" x2="1100" y2="690" stroke="#C8A15A" stroke-width="4"/>
  <text x="800" y="710" text-anchor="middle" fill="#3A2B21"
        font-size="74" letter-spacing="20"
        font-family="'Cormorant Garamond','Garamond','Baskerville','Times New Roman',serif">STUDIO</text>

  <line x1="570" y1="810" x2="735" y2="810" stroke="#C8A15A" stroke-width="4"/>
  <line x1="865" y1="810" x2="1030" y2="810" stroke="#C8A15A" stroke-width="4"/>
  <path d="M 800 810
           C 790 790, 773 792, 771 809
           C 769 824, 782 835, 800 845
           C 818 835, 831 824, 829 809
           C 827 792, 810 790, 800 810" fill="none" stroke="#C8A15A" stroke-width="4"/>
</g>
</svg>